<?xml version="1.0" encoding="UTF-8"?>
<svg id="Capa_1" xmlns="http://www.w3.org/2000/svg" version="1.1" viewBox="0 0 1080 1080">
  <!-- Generator: Adobe Illustrator 29.0.0, SVG Export Plug-In . SVG Version: 2.1.0 Build 186)  -->
  <defs>
    <style>
      .st0 {
        fill: #48c237;
      }
    </style>
  </defs>
  <path class="st0" d="M983.9,143h-186.4c-5.2,0-9.3-4.1-9.3-9.3V53.1c0-5.2-4.1-9.3-9.3-9.3h-80.6c-5.2,0-9.3,4.1-9.3,9.3v80.6c0,5.2-4.1,9.3-9.3,9.3h-279.1c-5.2,0-9.3-4.1-9.3-9.3V53.1c0-5.2-4.1-9.3-9.3-9.3h-80.6c-5.2,0-9.3,4.1-9.3,9.3v80.6c0,5.2-4.1,9.3-9.3,9.3H102.8c-5.2,0-9.3,4.1-9.3,9.3v775.4c0,60,48.5,108.5,108.5,108.5h676c60,0,108.5-48.5,108.5-108.5V144.3M838,936.8H242c-27.3,0-49.4-22.1-49.4-49.4V350.6c0-5.2,4.1-9.3,9.3-9.3h676c5.2,0,9.3,4.1,9.3,9.3v536.8c0,27.3-22.1,49.4-49.4,49.4Z"/>
  <path class="st0" d="M751.8,547.3c12.1-12.1,12.1-31.6,0-43.5l-26.6-26.6c-12.1-12.1-31.6-12.1-43.5,0l-186.9,186.9c-2.4,2.4-6.5,2.4-8.9,0l-87.5-87.5c-12.1-12.1-31.6-12.1-43.5,0l-26.6,26.6c-12.1,12.1-12.1,31.6,0,43.5l147.5,147.5c8,8,21.2,8,29.2,0l246.9-246.9h0Z"/>
</svg>