<?xml version="1.0" encoding="UTF-8"?>
<svg id="Capa_2" data-name="Capa 2" xmlns="http://www.w3.org/2000/svg" viewBox="0 0 801.35 526.96">
  <defs>
    <style>
      .cls-1, .cls-2 {
        fill: #41aa34;
      }

      .cls-3 {
        letter-spacing: -.02em;
      }

      .cls-2, .cls-4 {
        letter-spacing: 0em;
      }

      .cls-5 {
        fill: none;
      }

      .cls-6 {
        font-family: Montserrat-ExtraBold, Montserrat;
        font-size: 91.77px;
        font-weight: 700;
      }

      .cls-7 {
        letter-spacing: -.02em;
      }

      .cls-8 {
        fill: #41aa34;
      }

      .cls-9 {
        letter-spacing: -.03em;
      }

      .cls-10 {
        fill: #203c88;
        font-family: Mont-ExtraLightDEMO, Mont;
        font-size: 49.05px;
        font-weight: 200;
        stroke: #203c88;
        stroke-miterlimit: 10;
      }

      .cls-4, .cls-11, .cls-12 {
        fill: #203c88;
      }

      .cls-13 {
        letter-spacing: 0em;
      }

      .cls-11 {
        letter-spacing: 0em;
      }
    </style>
  </defs>
  <g id="Capa_1-2" data-name="Capa 1">
    <text class="cls-10" transform="translate(257.51 514.98)"><tspan x="0" y="0">GROU</tspan><tspan class="cls-9" x="146.45" y="0">P</tspan><tspan class="cls-13" x="174.21" y="0"> </tspan><tspan class="cls-7" x="188" y="0">S</tspan><tspan class="cls-3" x="215.86" y="0">A</tspan><tspan x="248.18" y="0">C</tspan></text>
    <text class="cls-6" transform="translate(0 440.84)"><tspan class="cls-12" x="0" y="0">DR</tspan><tspan class="cls-11" x="143.71" y="0">A</tspan><tspan class="cls-4" x="214.93" y="0">GO</tspan><tspan class="cls-2" x="363.23" y="0">HOGARD</tspan></text>
    <g>
      <g>
        <path class="cls-5" d="M483.45,262.36h139.55c5.54,0,10.04-4.5,10.04-10.04v-35.74c0-14.04-3.36-26.44-9.98-36.85-6.61-10.41-16.14-18.59-28.32-24.32-12.03-5.66-26.28-8.53-42.37-8.53s-30.64,2.87-42.56,8.54c-11.04,5.25-19.89,12.59-26.39,21.78,0,.55.02,1.08.02,1.63v83.53Z"/>
        <path class="cls-1" d="M658.1,158.44c-9.89-16.01-23.98-28.71-41.86-37.74-17.98-9.08-39.47-13.69-63.87-13.69s-46.17,4.6-64.04,13.68c-4.19,2.13-8.16,4.48-11.93,7.02,4.53,15.46,6.87,31.99,7.01,49.49,6.5-9.2,15.35-16.53,26.39-21.78,11.92-5.67,26.24-8.54,42.56-8.54s30.34,2.87,42.37,8.53c12.18,5.73,21.71,13.91,28.32,24.32,6.62,10.41,9.98,22.81,9.98,36.85v35.74c0,5.54-4.5,10.04-10.04,10.04h-139.55v.05c0,15.25-5.83,29.16-15.38,39.62h169.23c19.69,0,35.71-16.02,35.71-35.71v-52.02c0-21.05-5.01-39.84-14.9-55.84Z"/>
        <path class="cls-12" d="M424.64,302.18c21.93,0,39.78-17.84,39.78-39.78v-83.57c0-29.67-6.98-56.14-20.74-78.67h0c-13.76-22.53-33.36-40.41-58.26-53.12-25.05-12.8-55.01-19.29-89.04-19.29s-64.38,6.49-89.27,19.28c-24.74,12.72-44.26,30.6-58.02,53.13-13.76,22.53-20.74,49-20.74,78.67v83.57c0,21.93,17.84,39.78,39.78,39.78h256.52ZM181.92,182.09c0-20.15,4.77-37.95,14.17-52.93,9.41-14.97,22.86-26.73,39.99-34.97,16.9-8.13,37.19-12.25,60.3-12.25s42.97,4.12,60.02,12.24c17.31,8.24,30.86,20.01,40.26,34.98,9.41,14.96,14.18,32.77,14.18,52.93v49.49c0,9.49-7.72,17.21-17.22,17.21h-194.49c-9.49,0-17.21-7.72-17.21-17.21v-49.49Z"/>
      </g>
      <path class="cls-12" d="M328.13,157.49l-7.22-1.27c-3.54-.62-6.02-3.86-5.69-7.44l9.36-102.59c.16-1.73,1.76-2.95,3.47-2.65l34.24,6.04c1.74.31,2.83,2.06,2.33,3.75l-29.03,99.52c-.94,3.23-4.16,5.23-7.47,4.64Z"/>
      <path class="cls-12" d="M233.06,39.97v-22.24c0-3.83,14.51-17.73,62.87-17.73s63.77,13.9,63.77,17.73v22.24c0,3.83-4.01,6.93-8.95,6.93h-108.75c-4.94,0-8.95-3.1-8.95-6.93Z"/>
      <path class="cls-8" d="M511.18,121v-16.36c0-2.82,9.82-13.05,42.57-13.05s43.18,10.23,43.18,13.05v16.36c0,2.82-2.71,5.1-6.06,5.1h-73.63c-3.35,0-6.06-2.28-6.06-5.1Z"/>
      <path class="cls-12" d="M265.19,157.47l7.25-1.28c3.47-.61,5.89-3.78,5.57-7.29l-9.38-102.72c-.16-1.73-1.76-2.95-3.47-2.65l-34.24,6.04c-1.74.31-2.83,2.06-2.33,3.75l29,99.42c.96,3.28,4.24,5.32,7.6,4.73Z"/>
      <path class="cls-8" d="M574.03,201.43l-3.66-.65c-2.56-.45-4.35-2.79-4.11-5.38l6.08-66.58c.1-1.13,1.15-1.93,2.27-1.73l22.37,3.94c1.14.2,1.85,1.34,1.52,2.45l-18.79,64.41c-.71,2.45-3.16,3.97-5.67,3.53Z"/>
      <path class="cls-8" d="M534.23,201.4l3.18-.56c2.76-.49,4.68-3.01,4.43-5.8l-6.04-66.22c-.1-1.13-1.15-1.93-2.27-1.73l-22.37,3.94c-1.14.2-1.85,1.34-1.52,2.45l18.75,64.28c.74,2.53,3.26,4.09,5.85,3.63Z"/>
    </g>
  </g>
</svg>