<?xml version="1.0" encoding="UTF-8"?>
<svg id="Capa_2" data-name="Capa 2" xmlns="http://www.w3.org/2000/svg" viewBox="0 0 791.81 515.99">
  <defs>
    <style>
      .cls-1 {
        fill: #203c88;
        stroke: #203c88;
        stroke-miterlimit: 10;
      }

      .cls-2 {
        fill: #41aa34;
      }

      .cls-3 {
        fill: none;
      }

      .cls-4 {
        fill: #41aa34;
      }

      .cls-5 {
        fill: #203c88;
      }
    </style>
  </defs>
  <g id="Capa_1-2" data-name="Capa 1">
    <g>
      <path class="cls-1" d="M287.8,498.88c-.34,9.77-7.26,16.54-16.85,16.54-10.07,0-17.13-7.43-17.13-17.57s7.28-17.63,17.1-17.63c8.03,0,14.81,5.05,16.29,12.08h-1.64c-1.47-6.13-7.52-10.5-14.63-10.5-8.95,0-15.5,6.77-15.5,16.05s6.4,15.99,15.5,15.99c8.26,0,14.32-5.44,15.14-13.41h-16.79v-1.54h18.5Z"/>
      <path class="cls-1" d="M309.5,500l8.96,14.98h-1.83l-8.9-14.9h-10.53v14.9h-1.61v-34.33h12.47c6.03,0,10.43,4.08,10.43,9.75,0,5.15-3.71,9.01-9,9.61ZM297.2,498.54h10.8c5.21,0,8.86-3.43,8.86-8.15s-3.69-8.19-8.86-8.19h-10.8v16.34Z"/>
      <path class="cls-1" d="M324.08,497.85c0-10.08,7.38-17.72,17.71-17.72s17.7,7.6,17.7,17.72-7.38,17.64-17.7,17.64-17.71-7.6-17.71-17.64ZM357.85,497.85c0-9.21-6.71-16.13-16.07-16.13s-16.07,6.98-16.07,16.13,6.71,16.06,16.07,16.06,16.07-6.89,16.07-16.06Z"/>
      <path class="cls-1" d="M367.03,502.33v-21.68h1.62v21.59c0,6.78,4.67,11.6,11.23,11.6s11.22-4.82,11.22-11.6v-21.59h1.62v21.68c0,7.63-5.42,13.09-12.84,13.09s-12.85-5.47-12.85-13.09Z"/>
      <path class="cls-1" d="M425.15,490.96c0,5.92-4.61,10.35-10.78,10.35h-9.96v13.67h-1.61v-34.33h11.56c6.12,0,10.78,4.41,10.78,10.31ZM423.52,490.96c0-4.99-3.92-8.74-9.21-8.74h-9.89v17.52h9.89c5.29,0,9.21-3.75,9.21-8.78Z"/>
      <path class="cls-1" d="M441.65,504.89h1.63c0,5.41,4.16,8.91,10.41,8.91,5.7,0,9.7-3.26,9.7-8.07,0-5.44-4.82-6.49-9.96-7.63-5.33-1.17-11.04-2.44-11.04-8.8,0-5.5,4.35-9.06,11.04-9.06s10.69,3.79,10.69,9.55h-1.59c0-4.86-3.67-7.99-9.12-7.99s-9.4,2.93-9.4,7.45c0,5.2,4.85,6.24,9.91,7.34,5.43,1.21,11.12,2.5,11.12,9.12,0,5.84-4.72,9.66-11.33,9.66-7.23,0-12.05-4.16-12.05-10.5Z"/>
      <path class="cls-1" d="M493.02,505.04h-18.9l-4.24,9.94h-1.72l14.57-34.33h1.38l14.96,34.33h-1.74l-4.31-9.94ZM474.75,503.53h17.63l-8.93-20.55-8.7,20.55Z"/>
      <path class="cls-1" d="M501.97,497.85c0-10.26,7.29-17.7,17.5-17.7,7.55,0,13.46,4.14,15.82,10.84h-1.67c-2.28-5.77-7.48-9.26-14.15-9.26-9.22,0-15.86,6.73-15.86,16.12s6.61,16.05,15.86,16.05c6.85,0,12.17-3.68,14.44-9.86h1.63c-2.32,7.11-8.34,11.44-16.07,11.44-10.24,0-17.5-7.37-17.5-17.63Z"/>
    </g>
    <g>
      <path class="cls-5" d="M0,440.84v-64.24h30.38c7.1,0,13.34,1.32,18.72,3.95,5.38,2.63,9.59,6.33,12.62,11.1,3.03,4.77,4.54,10.46,4.54,17.07s-1.51,12.22-4.54,17.02c-3.03,4.8-7.24,8.52-12.62,11.15-5.38,2.63-11.62,3.95-18.72,3.95H0ZM18.17,426.34h11.47c3.67,0,6.87-.69,9.59-2.06,2.72-1.38,4.85-3.4,6.38-6.06,1.53-2.66,2.29-5.83,2.29-9.5s-.77-6.91-2.29-9.54c-1.53-2.63-3.66-4.63-6.38-6.01-2.72-1.38-5.92-2.06-9.59-2.06h-11.47v35.24Z"/>
      <path class="cls-5" d="M75.8,440.84v-64.24h28.72c9.36,0,16.56,2.13,21.61,6.38,5.05,4.25,7.57,10.05,7.57,17.39,0,4.83-1.16,9.01-3.49,12.53-2.33,3.52-5.61,6.21-9.87,8.08-4.25,1.87-9.31,2.8-15.19,2.8h-19.27l8.08-7.62v24.69h-18.17ZM93.97,418.08l-8.08-8.35h18.17c3.79,0,6.62-.83,8.49-2.48,1.87-1.65,2.8-3.95,2.8-6.88s-.93-5.32-2.8-6.97c-1.87-1.65-4.7-2.48-8.49-2.48h-18.17l8.08-8.35v35.52ZM115.54,440.84l-15.97-23.4h19.36l16.06,23.4h-19.46Z"/>
      <path class="cls-5" d="M136,440.84l28.36-64.24h17.9l28.45,64.24h-18.91l-22.21-55.34h7.16l-22.21,55.34h-18.54ZM151.51,428.36l4.68-13.4h31.39l4.68,13.4h-40.75Z"/>
      <path class="cls-5" d="M247.05,442.13c-5.08,0-9.79-.81-14.13-2.43-4.34-1.62-8.09-3.93-11.24-6.93-3.15-3-5.61-6.53-7.39-10.6-1.78-4.07-2.66-8.55-2.66-13.44s.89-9.38,2.66-13.45c1.77-4.07,4.25-7.6,7.43-10.6,3.18-3,6.96-5.31,11.33-6.93,4.37-1.62,9.16-2.43,14.36-2.43,6.06,0,11.47,1.01,16.24,3.03,4.77,2.02,8.72,4.93,11.84,8.72l-11.56,10.46c-2.2-2.39-4.57-4.18-7.11-5.37-2.54-1.19-5.37-1.79-8.49-1.79-2.75,0-5.26.43-7.53,1.28-2.26.86-4.19,2.1-5.78,3.72-1.59,1.62-2.83,3.55-3.72,5.78-.89,2.23-1.33,4.76-1.33,7.57s.44,5.17,1.33,7.43c.89,2.26,2.12,4.21,3.72,5.83,1.59,1.62,3.5,2.88,5.74,3.76,2.23.89,4.69,1.33,7.39,1.33s5.32-.44,7.89-1.33c2.57-.89,5.17-2.4,7.8-4.54l10.19,12.76c-3.67,2.63-7.92,4.65-12.76,6.06-4.83,1.41-9.58,2.11-14.22,2.11ZM274.03,433.96l-16.06-2.39v-24.23h16.06v26.61Z"/>
      <path class="cls-5" d="M317.99,442.13c-5.14,0-9.88-.83-14.22-2.48-4.35-1.65-8.12-3.99-11.33-7.02s-5.71-6.56-7.48-10.6c-1.78-4.04-2.66-8.47-2.66-13.31s.89-9.27,2.66-13.31c1.77-4.04,4.27-7.57,7.48-10.6s6.99-5.37,11.33-7.02c4.34-1.65,9.08-2.48,14.22-2.48s9.96.83,14.27,2.48c4.31,1.65,8.06,3.99,11.24,7.02,3.18,3.03,5.67,6.56,7.48,10.6,1.8,4.04,2.71,8.47,2.71,13.31s-.9,9.28-2.71,13.35c-1.81,4.07-4.3,7.6-7.48,10.6-3.18,3-6.93,5.32-11.24,6.97-4.31,1.65-9.07,2.48-14.27,2.48ZM317.99,427.07c2.45,0,4.73-.43,6.84-1.29,2.11-.86,3.95-2.09,5.51-3.72,1.56-1.62,2.78-3.56,3.67-5.83.89-2.26,1.33-4.77,1.33-7.53s-.44-5.34-1.33-7.57c-.89-2.23-2.11-4.16-3.67-5.78-1.56-1.62-3.4-2.86-5.51-3.72-2.11-.86-4.39-1.28-6.84-1.28s-4.73.43-6.84,1.28c-2.11.86-3.95,2.1-5.51,3.72-1.56,1.62-2.79,3.55-3.67,5.78-.89,2.23-1.33,4.76-1.33,7.57s.44,5.26,1.33,7.53c.89,2.26,2.11,4.21,3.67,5.83,1.56,1.62,3.4,2.86,5.51,3.72,2.11.86,4.39,1.29,6.84,1.29Z"/>
      <path class="cls-2" d="M363.23,440.84v-64.24h18.17v64.24h-18.17ZM380.12,415.79v-15.05h27.35v15.05h-27.35ZM406.18,440.84v-64.24h18.17v64.24h-18.17Z"/>
      <path class="cls-2" d="M469.6,442.13c-5.14,0-9.88-.83-14.22-2.48-4.35-1.65-8.12-3.99-11.33-7.02s-5.71-6.56-7.48-10.6c-1.78-4.04-2.66-8.47-2.66-13.31s.89-9.27,2.66-13.31c1.77-4.04,4.27-7.57,7.48-10.6s6.99-5.37,11.33-7.02c4.34-1.65,9.08-2.48,14.22-2.48s9.96.83,14.27,2.48c4.31,1.65,8.06,3.99,11.24,7.02,3.18,3.03,5.67,6.56,7.48,10.6,1.8,4.04,2.71,8.47,2.71,13.31s-.9,9.28-2.71,13.35c-1.81,4.07-4.3,7.6-7.48,10.6-3.18,3-6.93,5.32-11.24,6.97-4.31,1.65-9.07,2.48-14.27,2.48ZM469.6,427.07c2.45,0,4.73-.43,6.84-1.29,2.11-.86,3.95-2.09,5.51-3.72,1.56-1.62,2.78-3.56,3.67-5.83.89-2.26,1.33-4.77,1.33-7.53s-.44-5.34-1.33-7.57c-.89-2.23-2.11-4.16-3.67-5.78-1.56-1.62-3.4-2.86-5.51-3.72-2.11-.86-4.39-1.28-6.84-1.28s-4.73.43-6.84,1.28c-2.11.86-3.95,2.1-5.51,3.72-1.56,1.62-2.79,3.55-3.67,5.78-.89,2.23-1.33,4.76-1.33,7.57s.44,5.26,1.33,7.53c.89,2.26,2.11,4.21,3.67,5.83,1.56,1.62,3.4,2.86,5.51,3.72,2.11.86,4.39,1.29,6.84,1.29Z"/>
      <path class="cls-2" d="M546.96,442.13c-5.08,0-9.79-.81-14.13-2.43-4.34-1.62-8.09-3.93-11.24-6.93-3.15-3-5.61-6.53-7.39-10.6-1.78-4.07-2.66-8.55-2.66-13.44s.89-9.38,2.66-13.45c1.77-4.07,4.25-7.6,7.43-10.6,3.18-3,6.96-5.31,11.33-6.93,4.37-1.62,9.16-2.43,14.36-2.43,6.06,0,11.47,1.01,16.24,3.03,4.77,2.02,8.72,4.93,11.84,8.72l-11.56,10.46c-2.2-2.39-4.57-4.18-7.11-5.37-2.54-1.19-5.37-1.79-8.49-1.79-2.75,0-5.26.43-7.53,1.28-2.26.86-4.19,2.1-5.78,3.72-1.59,1.62-2.83,3.55-3.72,5.78-.89,2.23-1.33,4.76-1.33,7.57s.44,5.17,1.33,7.43c.89,2.26,2.12,4.21,3.72,5.83,1.59,1.62,3.5,2.88,5.74,3.76,2.23.89,4.69,1.33,7.39,1.33s5.32-.44,7.89-1.33c2.57-.89,5.17-2.4,7.8-4.54l10.19,12.76c-3.67,2.63-7.92,4.65-12.76,6.06-4.83,1.41-9.58,2.11-14.22,2.11ZM573.94,433.96l-16.06-2.39v-24.23h16.06v26.61Z"/>
      <path class="cls-2" d="M577.79,440.84l28.36-64.24h17.9l28.45,64.24h-18.91l-22.21-55.34h7.16l-22.21,55.34h-18.54ZM593.3,428.36l4.68-13.4h31.39l4.68,13.4h-40.75Z"/>
      <path class="cls-2" d="M657.64,440.84v-64.24h28.72c9.36,0,16.56,2.13,21.61,6.38,5.05,4.25,7.57,10.05,7.57,17.39,0,4.83-1.16,9.01-3.49,12.53-2.33,3.52-5.61,6.21-9.87,8.08-4.25,1.87-9.31,2.8-15.19,2.8h-19.27l8.08-7.62v24.69h-18.17ZM675.81,418.08l-8.08-8.35h18.17c3.79,0,6.62-.83,8.49-2.48,1.87-1.65,2.8-3.95,2.8-6.88s-.93-5.32-2.8-6.97c-1.87-1.65-4.7-2.48-8.49-2.48h-18.17l8.08-8.35v35.52ZM697.37,440.84l-15.97-23.4h19.36l16.06,23.4h-19.46Z"/>
      <path class="cls-2" d="M725.55,440.84v-64.24h30.38c7.1,0,13.34,1.32,18.72,3.95,5.38,2.63,9.59,6.33,12.62,11.1,3.03,4.77,4.54,10.46,4.54,17.07s-1.51,12.22-4.54,17.02c-3.03,4.8-7.24,8.52-12.62,11.15-5.38,2.63-11.62,3.95-18.72,3.95h-30.38ZM743.72,426.34h11.47c3.67,0,6.87-.69,9.59-2.06,2.72-1.38,4.85-3.4,6.38-6.06,1.53-2.66,2.29-5.83,2.29-9.5s-.77-6.91-2.29-9.54c-1.53-2.63-3.66-4.63-6.38-6.01-2.72-1.38-5.92-2.06-9.59-2.06h-11.47v35.24Z"/>
    </g>
    <g>
      <g>
        <path class="cls-3" d="M477.03,262.36h139.55c5.54,0,10.04-4.5,10.04-10.04v-35.74c0-14.04-3.36-26.44-9.98-36.85-6.61-10.41-16.14-18.59-28.32-24.32-12.03-5.66-26.28-8.53-42.37-8.53s-30.64,2.87-42.56,8.54c-11.04,5.25-19.89,12.59-26.39,21.78,0,.55.02,1.08.02,1.63v83.53Z"/>
        <path class="cls-2" d="M651.68,158.44c-9.89-16.01-23.98-28.71-41.86-37.74-17.98-9.08-39.47-13.69-63.87-13.69s-46.17,4.6-64.04,13.68c-4.19,2.13-8.16,4.48-11.93,7.02,4.53,15.46,6.87,31.99,7.01,49.49,6.5-9.2,15.35-16.53,26.39-21.78,11.92-5.67,26.24-8.54,42.56-8.54s30.34,2.87,42.37,8.53c12.18,5.73,21.71,13.91,28.32,24.32,6.62,10.41,9.98,22.81,9.98,36.85v35.74c0,5.54-4.5,10.04-10.04,10.04h-139.55v.05c0,15.25-5.83,29.16-15.38,39.62h169.23c19.69,0,35.71-16.02,35.71-35.71v-52.02c0-21.05-5.01-39.84-14.9-55.84Z"/>
        <path class="cls-5" d="M418.21,302.18c21.93,0,39.78-17.84,39.78-39.78v-83.57c0-29.67-6.98-56.14-20.74-78.67h0c-13.76-22.53-33.36-40.41-58.26-53.12-25.05-12.8-55.01-19.29-89.04-19.29s-64.38,6.49-89.27,19.28c-24.74,12.72-44.26,30.6-58.02,53.13-13.76,22.53-20.74,49-20.74,78.67v83.57c0,21.93,17.84,39.78,39.78,39.78h256.52ZM175.5,182.09c0-20.15,4.77-37.95,14.17-52.93,9.41-14.97,22.86-26.73,39.99-34.97,16.9-8.13,37.19-12.25,60.3-12.25s42.97,4.12,60.02,12.24c17.31,8.24,30.86,20.01,40.26,34.98,9.41,14.96,14.18,32.77,14.18,52.93v49.49c0,9.49-7.72,17.21-17.22,17.21h-194.49c-9.49,0-17.21-7.72-17.21-17.21v-49.49Z"/>
      </g>
      <path class="cls-5" d="M321.7,157.49l-7.22-1.27c-3.54-.62-6.02-3.86-5.69-7.44l9.36-102.59c.16-1.73,1.76-2.95,3.47-2.65l34.24,6.04c1.74.31,2.83,2.06,2.33,3.75l-29.03,99.52c-.94,3.23-4.16,5.23-7.47,4.64Z"/>
      <path class="cls-5" d="M226.63,39.97v-22.24c0-3.83,14.51-17.73,62.87-17.73s63.77,13.9,63.77,17.73v22.24c0,3.83-4.01,6.93-8.95,6.93h-108.75c-4.94,0-8.95-3.1-8.95-6.93Z"/>
      <path class="cls-4" d="M504.76,121v-16.36c0-2.82,9.82-13.05,42.57-13.05s43.18,10.23,43.18,13.05v16.36c0,2.82-2.71,5.1-6.06,5.1h-73.63c-3.35,0-6.06-2.28-6.06-5.1Z"/>
      <path class="cls-5" d="M258.77,157.47l7.25-1.28c3.47-.61,5.89-3.78,5.57-7.29l-9.38-102.72c-.16-1.73-1.76-2.95-3.47-2.65l-34.24,6.04c-1.74.31-2.83,2.06-2.33,3.75l29,99.42c.96,3.28,4.24,5.32,7.6,4.73Z"/>
      <path class="cls-4" d="M567.61,201.43l-3.66-.65c-2.56-.45-4.35-2.79-4.11-5.38l6.08-66.58c.1-1.13,1.15-1.93,2.27-1.73l22.37,3.94c1.14.2,1.85,1.34,1.52,2.45l-18.79,64.41c-.71,2.45-3.16,3.97-5.67,3.53Z"/>
      <path class="cls-4" d="M527.8,201.4l3.18-.56c2.76-.49,4.68-3.01,4.43-5.8l-6.04-66.22c-.1-1.13-1.15-1.93-2.27-1.73l-22.37,3.94c-1.14.2-1.85,1.34-1.52,2.45l18.75,64.28c.74,2.53,3.26,4.09,5.85,3.63Z"/>
    </g>
  </g>
</svg>